<?xml version="1.0" standalone="no"?>
<!DOCTYPE svg PUBLIC "-//W3C//DTD SVG 20010904//EN"
 "http://www.w3.org/TR/2001/REC-SVG-20010904/DTD/svg10.dtd">
<svg version="1.0" xmlns="http://www.w3.org/2000/svg"
 width="512.000000pt" height="512.000000pt" viewBox="0 0 512.000000 512.000000"
 preserveAspectRatio="xMidYMid meet">
<metadata>
Created by potrace 1.11, written by Peter Selinger 2001-2013
</metadata>
<g transform="translate(0.000000,512.000000) scale(0.100000,-0.100000)"
fill="#000000" stroke="none">
<path d="M2742 5099 c-106 -53 -196 -211 -278 -489 -9 -30 -20 -64 -24 -76 -8
-21 -51 -171 -54 -189 -1 -5 -10 -37 -20 -70 -10 -33 -20 -67 -22 -75 -1 -8
-15 -58 -30 -110 -14 -52 -28 -102 -29 -110 -2 -8 -19 -73 -39 -145 -31 -115
-132 -505 -141 -545 -2 -8 -11 -44 -20 -80 -17 -64 -20 -79 -30 -121 -12 -56
-11 -56 -128 -79 -62 -11 -125 -23 -142 -25 -16 -2 -52 -9 -80 -15 -27 -7 -61
-14 -75 -16 -20 -4 -53 -11 -90 -19 -3 -1 -25 -5 -50 -9 -25 -5 -52 -10 -60
-11 -20 -4 -288 -60 -410 -86 -52 -12 -105 -23 -118 -25 -82 -16 -395 -100
-481 -129 -230 -77 -351 -192 -351 -333 1 -162 147 -394 289 -461 47 -21 71
-25 146 -25 78 -1 127 3 290 19 17 2 62 6 100 10 39 3 86 7 105 10 19 2 58 7
85 10 28 2 70 7 95 11 25 3 65 7 90 9 25 3 63 7 85 11 49 7 74 10 145 19 30 4
62 9 71 10 8 2 40 6 70 9 30 3 78 10 107 15 l53 8 -5 -41 c-2 -23 -5 -41 -6
-41 -1 0 -3 -7 -5 -15 -2 -8 -8 -35 -13 -59 -6 -25 -9 -49 -6 -53 3 -4 1 -8
-3 -8 -5 0 -9 -8 -10 -17 -1 -23 -10 -66 -22 -118 -5 -22 -12 -51 -14 -65 -3
-14 -8 -36 -11 -50 -3 -14 -8 -36 -10 -50 -2 -14 -7 -36 -10 -50 -3 -14 -8
-36 -11 -50 -2 -14 -9 -47 -15 -75 -6 -27 -13 -65 -16 -84 -2 -18 -7 -38 -10
-43 -6 -9 -8 -22 -18 -93 -1 -11 -5 -29 -9 -40 -7 -24 -17 -70 -22 -105 -1
-14 -7 -45 -13 -70 -5 -25 -10 -52 -11 -60 0 -8 -7 -44 -15 -80 -8 -36 -17
-83 -20 -105 -3 -22 -8 -51 -11 -65 -3 -14 -7 -59 -9 -102 -6 -100 18 -166 86
-243 73 -82 238 -182 329 -200 67 -13 164 -13 195 1 46 19 115 94 157 170 68
123 116 264 258 764 17 58 39 135 50 173 26 91 58 205 69 247 5 19 19 68 30
108 30 106 160 574 165 595 10 41 16 54 28 54 29 1 196 14 232 18 22 3 72 7
110 10 39 3 88 7 110 9 22 3 81 7 130 10 50 4 115 9 145 11 113 10 178 15 270
20 52 3 113 7 135 10 22 2 83 7 135 11 101 7 145 11 145 13 0 1 25 4 55 6 90
7 305 44 378 66 135 41 232 105 272 180 91 167 -5 573 -188 799 -24 30 -54 61
-66 69 -11 8 -23 18 -26 21 -9 11 -80 52 -80 46 0 -4 -12 0 -27 8 -37 19 -177
15 -322 -10 -19 -3 -53 -8 -75 -11 -60 -7 -90 -11 -96 -13 -3 -2 -8 -2 -12 -2
-3 1 -44 -5 -90 -13 -45 -8 -103 -17 -128 -21 -52 -7 -75 -11 -110 -18 -14 -3
-45 -9 -70 -12 -58 -8 -72 -10 -150 -24 -36 -6 -81 -13 -100 -15 -19 -3 -46
-8 -60 -11 -39 -9 -61 -13 -105 -19 -22 -3 -52 -8 -67 -11 l-26 -5 13 43 c8
24 28 84 45 133 17 50 33 97 35 105 2 8 4 16 5 18 2 1 3 5 5 10 1 4 5 14 8 22
8 17 67 180 71 195 2 6 8 21 13 35 6 14 18 46 27 72 8 26 20 56 25 65 5 10 25
56 44 103 20 47 55 128 80 180 75 163 81 182 81 265 0 47 -7 74 -33 125 -17
36 -44 79 -59 96 -15 17 -41 47 -58 66 -17 20 -58 57 -90 83 -32 26 -61 51
-64 54 -10 13 -141 91 -202 121 -95 46 -184 71 -274 75 -66 4 -87 1 -122 -16z"/>
</g>
</svg>
