<?xml version="1.0" standalone="no"?>
<!DOCTYPE svg PUBLIC "-//W3C//DTD SVG 20010904//EN"
 "http://www.w3.org/TR/2001/REC-SVG-20010904/DTD/svg10.dtd">
<svg version="1.0" xmlns="http://www.w3.org/2000/svg"
 width="399.000000pt" height="399.000000pt" viewBox="0 0 399.000000 399.000000"
 preserveAspectRatio="xMidYMid meet">
<metadata>
Created by potrace 1.11, written by Peter Selinger 2001-2013
</metadata>
<g transform="translate(0.000000,399.000000) scale(0.100000,-0.100000)"
fill="#000000" stroke="none">
<path d="M580 3821 c-199 -63 -356 -223 -414 -420 -14 -49 -16 -198 -16 -1406
0 -1501 -5 -1388 68 -1530 48 -93 154 -199 247 -247 142 -73 28 -68 1535 -68
1507 0 1393 -5 1535 68 93 48 199 154 247 247 73 142 68 29 68 1530 0 1501 5
1388 -68 1530 -48 93 -154 199 -247 247 -142 73 -27 68 -1539 67 -1274 0
-1365 -1 -1416 -18z m417 -877 c56 -45 75 -87 70 -157 -10 -162 -204 -244
-328 -140 -42 36 -62 80 -62 138 0 58 18 97 65 142 46 44 73 53 150 50 57 -2
72 -7 105 -33z m970 -719 c118 -335 223 -644 235 -685 11 -41 23 -82 25 -90 3
-8 15 19 27 61 11 42 120 358 241 702 l219 627 183 0 183 0 0 -920 0 -920
-155 0 -155 0 0 505 c0 292 5 546 11 601 6 53 9 98 6 100 -2 2 -98 -268 -213
-601 l-209 -605 -132 0 -131 0 -20 58 c-136 397 -396 1139 -401 1144 -4 4 -1
-43 6 -105 8 -73 12 -283 13 -604 l0 -493 -160 0 -160 0 0 920 0 920 186 -2
187 -3 214 -610z m1353 585 c0 -5 -9 -10 -20 -10 -18 0 -20 -7 -20 -80 0 -64
-3 -80 -15 -80 -12 0 -15 16 -15 80 0 73 -2 80 -20 80 -11 0 -20 5 -20 10 0 6
25 10 55 10 30 0 55 -4 55 -10z m84 -57 c11 -35 23 -63 28 -63 4 0 8 4 8 10 0
5 9 34 21 65 15 40 25 55 40 55 17 0 19 -8 19 -90 0 -72 -3 -90 -15 -90 -10 0
-15 15 -17 58 l-3 57 -19 -58 c-25 -72 -41 -71 -70 3 l-21 55 -3 -57 c-2 -43
-7 -58 -17 -58 -12 0 -15 18 -15 91 0 87 1 90 22 87 17 -2 26 -16 42 -65z
m-2384 -1038 l0 -715 -150 0 -150 0 0 715 0 715 150 0 150 0 0 -715z"/>
</g>
</svg>
